<svg width="20" height="20" viewBox="0 0 20 20" fill="none" xmlns="http://www.w3.org/2000/svg">
<path d="M1 10.1531C1 6.75923 1 5.06183 2.0548 4.00792C3.1096 2.95402 4.8061 2.95313 8.2 2.95313H11.8C15.1939 2.95313 16.8913 2.95312 17.9452 4.00792C18.9991 5.06273 19 6.75923 19 10.1531V11.9531C19 15.347 19 17.0444 17.9452 18.0983C16.8904 19.1522 15.1939 19.1531 11.8 19.1531H8.2C4.8061 19.1531 3.1087 19.1531 2.0548 18.0983C1.0009 17.0435 1 15.347 1 11.9531V10.1531Z" stroke="black" stroke-width="1.5"/>
<path d="M5.50313 2.95156V1.60156M14.5031 2.95156V1.60156M1.45312 7.45156H18.5531" stroke="black" stroke-width="1.5" stroke-linecap="round"/>
<path d="M15.4016 14.6484C15.4016 14.8871 15.3067 15.1161 15.138 15.2848C14.9692 15.4536 14.7403 15.5484 14.5016 15.5484C14.2629 15.5484 14.0339 15.4536 13.8652 15.2848C13.6964 15.1161 13.6016 14.8871 13.6016 14.6484C13.6016 14.4097 13.6964 14.1808 13.8652 14.012C14.0339 13.8433 14.2629 13.7484 14.5016 13.7484C14.7403 13.7484 14.9692 13.8433 15.138 14.012C15.3067 14.1808 15.4016 14.4097 15.4016 14.6484ZM15.4016 11.0484C15.4016 11.2871 15.3067 11.5161 15.138 11.6848C14.9692 11.8536 14.7403 11.9484 14.5016 11.9484C14.2629 11.9484 14.0339 11.8536 13.8652 11.6848C13.6964 11.5161 13.6016 11.2871 13.6016 11.0484C13.6016 10.8097 13.6964 10.5808 13.8652 10.412C14.0339 10.2433 14.2629 10.1484 14.5016 10.1484C14.7403 10.1484 14.9692 10.2433 15.138 10.412C15.3067 10.5808 15.4016 10.8097 15.4016 11.0484ZM10.9016 14.6484C10.9016 14.8871 10.8067 15.1161 10.638 15.2848C10.4692 15.4536 10.2403 15.5484 10.0016 15.5484C9.76287 15.5484 9.53395 15.4536 9.36517 15.2848C9.19638 15.1161 9.10156 14.8871 9.10156 14.6484C9.10156 14.4097 9.19638 14.1808 9.36517 14.012C9.53395 13.8433 9.76287 13.7484 10.0016 13.7484C10.2403 13.7484 10.4692 13.8433 10.638 14.012C10.8067 14.1808 10.9016 14.4097 10.9016 14.6484ZM10.9016 11.0484C10.9016 11.2871 10.8067 11.5161 10.638 11.6848C10.4692 11.8536 10.2403 11.9484 10.0016 11.9484C9.76287 11.9484 9.53395 11.8536 9.36517 11.6848C9.19638 11.5161 9.10156 11.2871 9.10156 11.0484C9.10156 10.8097 9.19638 10.5808 9.36517 10.412C9.53395 10.2433 9.76287 10.1484 10.0016 10.1484C10.2403 10.1484 10.4692 10.2433 10.638 10.412C10.8067 10.5808 10.9016 10.8097 10.9016 11.0484ZM6.40156 14.6484C6.40156 14.8871 6.30674 15.1161 6.13796 15.2848C5.96918 15.4536 5.74026 15.5484 5.50156 15.5484C5.26287 15.5484 5.03395 15.4536 4.86517 15.2848C4.69638 15.1161 4.60156 14.8871 4.60156 14.6484C4.60156 14.4097 4.69638 14.1808 4.86517 14.012C5.03395 13.8433 5.26287 13.7484 5.50156 13.7484C5.74026 13.7484 5.96918 13.8433 6.13796 14.012C6.30674 14.1808 6.40156 14.4097 6.40156 14.6484ZM6.40156 11.0484C6.40156 11.2871 6.30674 11.5161 6.13796 11.6848C5.96918 11.8536 5.74026 11.9484 5.50156 11.9484C5.26287 11.9484 5.03395 11.8536 4.86517 11.6848C4.69638 11.5161 4.60156 11.2871 4.60156 11.0484C4.60156 10.8097 4.69638 10.5808 4.86517 10.412C5.03395 10.2433 5.26287 10.1484 5.50156 10.1484C5.74026 10.1484 5.96918 10.2433 6.13796 10.412C6.30674 10.5808 6.40156 10.8097 6.40156 11.0484Z" fill="black"/>
</svg>
