<svg width="24" height="25" viewBox="0 0 24 25" fill="none" xmlns="http://www.w3.org/2000/svg">
<path fill-rule="evenodd" clip-rule="evenodd" d="M6.774 7.00156L7.586 20.6496C7.59823 20.853 7.68761 21.044 7.8359 21.1838C7.9842 21.3235 8.18023 21.4014 8.384 21.4016H15.616C15.8198 21.4014 16.0158 21.3235 16.1641 21.1838C16.3124 21.044 16.4018 20.853 16.414 20.6496L17.226 7.00156H6.774ZM18.429 7.00156L17.612 20.7206C17.5817 21.2294 17.3582 21.7075 16.9872 22.0571C16.6162 22.4067 16.1258 22.6014 15.616 22.6016H8.384C7.87425 22.6014 7.38377 22.4067 7.01279 22.0571C6.64182 21.7075 6.41833 21.2294 6.388 20.7206L5.571 7.00156H3.5V6.30156C3.5 6.16895 3.55268 6.04178 3.64645 5.94801C3.74021 5.85424 3.86739 5.80156 4 5.80156H20C20.1326 5.80156 20.2598 5.85424 20.3536 5.94801C20.4473 6.04178 20.5 6.16895 20.5 6.30156V7.00156H18.429ZM14 3.60156C14.1326 3.60156 14.2598 3.65424 14.3536 3.74801C14.4473 3.84178 14.5 3.96895 14.5 4.10156V4.80156H9.5V4.10156C9.5 3.96895 9.55268 3.84178 9.64645 3.74801C9.74021 3.65424 9.86739 3.60156 10 3.60156H14ZM9.5 9.60156H10.7L11.2 18.6016H10L9.5 9.60156ZM13.3 9.60156H14.5L14 18.6016H12.8L13.3 9.60156Z" fill="black"/>
</svg>
